<svg id="eC9hf5FZqOD1" xmlns="http://www.w3.org/2000/svg" xmlns:xlink="http://www.w3.org/1999/xlink" viewBox="0 0 240 240" shape-rendering="geometricPrecision" text-rendering="geometricPrecision"><ellipse rx="115.924664" ry="115.924664" transform="matrix(1.035155 0 0 1.035155 120.000005 119.999996)" fill="rgba(210,219,237,0)" stroke="#000" stroke-linecap="square"/><line x1="8.794955" y1="0" x2="-8.794955" y2="0" transform="translate(8.794963 120.000004)" fill="none" stroke="#000" stroke-width="2.4"/><line x1="8.794955" y1="0" x2="-8.794955" y2="0" transform="matrix(0 1-1 0 120.000004 8.794963)" fill="none" stroke="#000" stroke-width="2.4"/><line x1="8.794955" y1="0" x2="-8.794955" y2="0" transform="matrix(0 1-1 0 120.000004 231.205037)" fill="none" stroke="#000" stroke-width="2.4"/><path d="" fill="none" stroke="#3f5787" stroke-width="0.5"/><line x1="8.794955" y1="0" x2="-8.794955" y2="0" transform="translate(231.205045 120.000004)" fill="none" stroke="#000" stroke-width="2.4"/><line x1="8.794955" y1="0" x2="-8.794955" y2="0" transform="matrix(.866025 0.5-.5 0.866025 216.306395 176.602524)" fill="none" stroke="#000" stroke-width="2.4"/><line x1="8.794955" y1="0" x2="-8.794955" y2="0" transform="matrix(.866025 0.5-.5 0.866025 23.693609 65.397478)" fill="none" stroke="#000" stroke-width="2.4"/><line x1="8.794955" y1="0" x2="-8.794955" y2="0" transform="matrix(.519843-.854262 0.854262 0.519843 175.812341 23.810951)" fill="none" stroke="#000" stroke-width="2.4"/><line x1="8.794955" y1="0" x2="-8.794955" y2="0" transform="matrix(.519843-.854262 0.854262 0.519843 64.572001 216.409849)" fill="none" stroke="#000" stroke-width="2.4"/><line x1="8.794955" y1="0" x2="-8.794955" y2="0" transform="matrix(.877328-.479891 0.479891 0.877328 23.693609 176.425662)" fill="none" stroke="#000" stroke-width="2.4"/><line x1="8.794955" y1="0" x2="-8.794955" y2="0" transform="matrix(.5 0.866025-.866025 0.5 64.746523 23.707488)" fill="none" stroke="#000" stroke-width="2.4"/><line x1="8.794955" y1="0" x2="-8.794955" y2="0" transform="matrix(.877328-.479891 0.479891 0.877328 216.405805 65.220617)" fill="none" stroke="#000" stroke-width="2.4"/><line x1="8.794955" y1="0" x2="-8.794955" y2="0" transform="matrix(.5 0.866025-.866025 0.5 175.812341 216.409849)" fill="none" stroke="#000" stroke-width="2.4"/><ellipse rx="10.798833" ry="10.798833" transform="matrix(.722574 0 0 0.722575 120.000005 120.000004)" fill="#1e8022" stroke-width="0"/><line x1="0" y1="37.251832" x2="0" y2="-37.251832" transform="matrix(.258819 0.965926-.965926 0.258819 155.982513 110.358512)" fill="none" stroke="#1e8022" stroke-width="2.4" stroke-linecap="round" stroke-linejoin="round"/><line x1="0" y1="48.094525" x2="0" y2="-48.094524" transform="matrix(.866025 0.5-.5 0.866025 95.952738 161.651084)" fill="none" stroke="#1e8022" stroke-width="2.4" stroke-linecap="round"/></svg>